<?xml version="1.0" encoding="UTF-8" standalone="no"?>
<svg width="98px" height="30px" viewBox="0 0 98 30" version="1.1" xmlns="http://www.w3.org/2000/svg" xmlns:xlink="http://www.w3.org/1999/xlink">
    <!-- Generator: Sketch 3.8.3 (29802) - http://www.bohemiancoding.com/sketch -->
    <title>logo-pink</title>
    <desc>Created with Sketch.</desc>
    <defs></defs>
    <g id="Page-1" stroke="none" stroke-width="1" fill="none" fill-rule="evenodd">
        <g id="logo-pink">
            <path d="M29.5890411,14.7945201 C29.5890411,22.965616 22.9652055,29.5890406 14.7945205,29.5890406 C6.62383562,29.5890406 0,22.965616 0,14.7945201 C0,6.62342418 6.62383562,-4.79451998e-07 14.7945205,-4.79451998e-07 C22.9652055,-4.79451998e-07 29.5890411,6.62342418 29.5890411,14.7945201" id="Fill-1" fill="#ED357E"></path>
            <path d="M8.15116438,13.5829315 L8.15116438,11.8297808 L9.71979452,11.8297808 L9.71979452,11.0916986 C9.71979452,10.2426575 9.9840411,9.54813699 10.5133562,9.00649315 C11.0422603,8.46526027 11.8419863,8.19443836 12.9121233,8.19443836 C13.1459589,8.19443836 13.3797945,8.20347945 13.6136301,8.2219726 C13.8470548,8.24087671 14.074726,8.25608219 14.2962329,8.268 L14.2962329,10.2241644 C13.9888356,10.1871781 13.6686986,10.1686849 13.3366438,10.1686849 C12.9799315,10.1686849 12.7243151,10.2521096 12.5706164,10.418137 C12.4169178,10.5841644 12.3400685,10.8644384 12.3400685,11.258137 L12.3400685,11.8297808 L14.1486986,11.8297808 L14.1486986,13.5829315 L12.3400685,13.5829315 L12.3400685,21.3701918 L9.71979452,21.3701918 L9.71979452,13.5829315 L8.15116438,13.5829315 L8.15116438,13.5829315 L8.15116438,13.5829315 Z" id="Fill-4" fill="#FEFEFE"></path>
            <path d="M18.6978082,21.3700685 L18.6978082,13.5828082 L15.5136986,13.5828082 L15.5136986,11.8300685 C15.96,11.8419863 16.3910959,11.8091096 16.8069863,11.7302055 C17.2232877,11.6521233 17.5968493,11.5132192 17.9289041,11.3143151 C18.2605479,11.115 18.5408219,10.8532192 18.770137,10.5273288 C18.9990411,10.2018493 19.150274,9.79746575 19.2221918,9.31541096 L21.2663014,9.31541096 L21.2663014,21.3700685 L18.6978082,21.3700685 L18.6978082,21.3700685 L18.6978082,21.3700685 Z" id="Fill-6" fill="#FEFEFE"></path>
            <path d="M37.6097123,19.2990411 C37.7909452,19.4260274 37.9984795,19.5193151 38.2339589,19.5793151 C38.4690274,19.6405479 38.7135479,19.670137 38.9666986,19.670137 C39.1475205,19.670137 39.3373836,19.6491781 39.5366986,19.6064384 C39.7351918,19.5641096 39.9160137,19.4983562 40.0791644,19.4075342 C40.2419041,19.3167123 40.3775205,19.1963014 40.4860137,19.0454795 C40.5949178,18.8954795 40.6491644,18.7052055 40.6491644,18.4758904 C40.6491644,18.090411 40.392726,17.8006849 39.8802603,17.6071233 C39.3673836,17.4147945 38.652726,17.2220548 37.7362877,17.0284932 C37.362726,16.9442466 36.9973836,16.8447945 36.6419041,16.730137 C36.2860137,16.6158904 35.9695753,16.4650685 35.6921781,16.2780822 C35.4143699,16.0910959 35.1916301,15.8560274 35.022726,15.5724658 C34.8538219,15.2893151 34.7695753,14.9420548 34.7695753,14.5319178 C34.7695753,13.9294521 34.8871096,13.4346575 35.1221781,13.0487671 C35.3576575,12.6632877 35.6679315,12.3583562 36.0538219,12.1352055 C36.4397123,11.9120548 36.8740959,11.7554795 37.3565616,11.6650685 C37.8386164,11.5742466 38.333411,11.5294521 38.8397123,11.5294521 C39.3464247,11.5294521 39.8379315,11.5775342 40.3142329,11.6736986 C40.7905342,11.7706849 41.2158767,11.9334247 41.5898493,12.1623288 C41.963411,12.3916438 42.2740959,12.6961644 42.5214932,13.0758904 C42.7684795,13.4556164 42.9160137,13.9352055 42.9645068,14.5138356 L40.522589,14.5138356 C40.4860137,14.019863 40.2990274,13.6853425 39.9616301,13.510274 C39.6238219,13.3352055 39.2256027,13.2476712 38.7677945,13.2476712 C38.622726,13.2476712 38.4657397,13.2567123 38.2972466,13.2752055 C38.1283425,13.2932877 37.9742329,13.3319178 37.8357397,13.3923288 C37.6972466,13.4527397 37.5797123,13.540274 37.483137,13.6549315 C37.3865616,13.769589 37.3384795,13.9232877 37.3384795,14.1164384 C37.3384795,14.3453425 37.422726,14.5319178 37.5916301,14.6769863 C37.7605342,14.8216438 37.9803973,14.939589 38.2520411,15.029589 C38.523274,15.12 38.8339589,15.2013699 39.1836849,15.2741096 C39.533411,15.3460274 39.8893014,15.4249315 40.2509452,15.5091781 C40.6245068,15.5934247 40.9898493,15.6961644 41.3453288,15.8165753 C41.7012192,15.9378082 42.0176575,16.0972603 42.2950548,16.2957534 C42.5724521,16.4946575 42.7956027,16.7428767 42.9645068,17.0383562 C43.133411,17.3334247 43.2180685,17.6979452 43.2180685,18.1323288 C43.2180685,18.7471233 43.0939589,19.2632877 42.8469726,19.6787671 C42.5995753,20.0954795 42.2773836,20.4291781 41.8791644,20.6831507 C41.4813562,20.9367123 41.0260137,21.1138356 40.5135479,21.2165753 C40.0006712,21.3189041 39.4791644,21.370274 38.9486164,21.370274 C38.4057397,21.370274 37.8751918,21.3164384 37.3565616,21.2079452 C36.8379315,21.0986301 36.3764247,20.9182192 35.972863,20.6646575 C35.5684795,20.4115068 35.2368356,20.0769863 34.9775205,19.6610959 C34.7182055,19.2447945 34.5764247,18.7228767 34.552589,18.0961644 L36.9949178,18.0961644 C36.9949178,18.3739726 37.0520411,18.6115068 37.1666986,18.810411 C37.2809452,19.0093151 37.4288904,19.1724658 37.6097123,19.2990411 L37.6097123,19.2990411 Z" id="Fill-8" fill="#333333"></path>
            <path d="M49.856863,11.5293288 L49.856863,13.2479589 L47.9750822,13.2479589 L47.9750822,18.2764521 C47.9750822,18.7108356 48.0478219,19.0005616 48.1924795,19.1452192 C48.337137,19.2902877 48.6264521,19.3626164 49.0608356,19.3626164 C49.2054932,19.3626164 49.3439863,19.3560411 49.476726,19.3441233 C49.6094658,19.3322055 49.7360411,19.3145342 49.856863,19.2902877 L49.856863,21.2801507 C49.6394658,21.3163151 49.3982329,21.3405616 49.1331644,21.3524795 C48.8676849,21.3643973 48.6083699,21.3701507 48.3552192,21.3701507 C47.957,21.3701507 47.5801507,21.3434384 47.2246712,21.2891918 C46.8687808,21.2345342 46.5552192,21.1293288 46.2839863,20.9727534 C46.0127534,20.8153562 45.7982329,20.5922055 45.6416575,20.3033014 C45.4846712,20.0135753 45.4061781,19.6338493 45.4061781,19.1637123 L45.4061781,13.2479589 L43.8506986,13.2479589 L43.8506986,11.5293288 L45.4061781,11.5293288 L45.4061781,8.21864384 L47.9750822,8.21864384 L47.9750822,11.5293288 L49.856863,11.5293288 L49.856863,11.5293288 L49.856863,11.5293288 Z" id="Fill-10" fill="#333333"></path>
            <path d="M57.4186712,21.3700685 L57.4186712,19.8330822 L57.3640137,19.8330822 C57.0381233,20.3755479 56.6160685,20.7671918 56.0974384,21.0088356 C55.5788082,21.2496575 55.0482603,21.3700685 54.5057945,21.3700685 C53.8182603,21.3700685 53.2544247,21.2800685 52.8146986,21.0988356 C52.3741507,20.9180137 52.0273014,20.6619863 51.7745616,20.3307534 C51.520589,19.9982877 51.3426438,19.594726 51.240726,19.1180137 C51.1379863,18.6417123 51.0866164,18.1144521 51.0866164,17.535 L51.0866164,11.5292466 L53.6559315,11.5292466 L53.6559315,17.0644521 C53.6559315,17.8366438 53.7763425,18.4123973 54.0175753,18.7929452 C54.2588082,19.1722603 54.6866164,19.3625342 55.3022329,19.3625342 C56.001274,19.3625342 56.5075753,19.1537671 56.8215479,18.7382877 C57.1346986,18.3223973 57.2916849,17.6377397 57.2916849,16.685137 L57.2916849,11.5292466 L59.8601781,11.5292466 L59.8601781,21.3700685 L57.4186712,21.3700685 L57.4186712,21.3700685 L57.4186712,21.3700685 Z" id="Fill-12" fill="#333333"></path>
            <path d="M68.3443836,15.318863 C68.2720548,14.9633836 68.1483562,14.6498219 67.9741096,14.3781781 C67.7986301,14.1069452 67.5730137,13.8870822 67.2952055,13.7181781 C67.0173973,13.5496849 66.6684932,13.4650274 66.2464384,13.4650274 C65.8239726,13.4650274 65.4684932,13.5496849 65.1787671,13.7181781 C64.889863,13.8870822 64.6568493,14.1102329 64.4826027,14.3876301 C64.3075342,14.6650274 64.1809589,14.9814658 64.1024658,15.3373562 C64.0235616,15.6928356 63.9853425,16.0635205 63.9853425,16.4498219 C63.9853425,16.8118767 64.0268493,17.1739315 64.1115068,17.5351644 C64.1957534,17.8968082 64.3313699,18.2198219 64.5187671,18.5029726 C64.7053425,18.7865342 64.9408219,19.0158493 65.2243836,19.1909178 C65.5075342,19.3659863 65.8482192,19.4526986 66.2464384,19.4526986 C66.6684932,19.4526986 67.0206849,19.3684521 67.3046575,19.1995479 C67.5873973,19.0310548 67.8138356,18.8046164 67.9831507,18.5214658 C68.1516438,18.2383151 68.2720548,17.9153014 68.3443836,17.5532466 C68.4171233,17.1916027 68.4536986,16.8180411 68.4536986,16.4321507 C68.4536986,16.0462603 68.4171233,15.6751644 68.3443836,15.318863 L68.3443836,15.318863 L68.3443836,15.318863 L68.3443836,15.318863 Z M68.4536986,19.9413288 C68.1516438,20.4476301 67.7567123,20.8129726 67.2684932,21.0353014 C66.779863,21.2584521 66.2283562,21.3702329 65.6131507,21.3702329 C64.9132877,21.3702329 64.2980822,21.2346164 63.7675342,20.9629726 C63.2369863,20.6917397 62.800137,20.3243425 62.4561644,19.8603699 C62.1126027,19.3955753 61.8532877,18.8617397 61.6782192,18.258863 C61.5035616,17.6559863 61.4160274,17.0284521 61.4160274,16.3774932 C61.4160274,15.7507808 61.5035616,15.1446164 61.6782192,14.559411 C61.8532877,13.9746164 62.1126027,13.458863 62.4561644,13.0125616 C62.800137,12.5662603 63.2312329,12.2074932 63.749863,11.9362603 C64.2684932,11.6650274 64.8713699,11.529411 65.5589041,11.529411 C66.1132877,11.529411 66.6409589,11.6469452 67.1419178,11.8820137 C67.6420548,12.1170822 68.0369863,12.4639315 68.3267123,12.9217397 L68.3628767,12.9217397 L68.3628767,8.21872603 L70.9317808,8.21872603 L70.9317808,21.3702329 L68.489863,21.3702329 L68.489863,19.9413288 L68.4536986,19.9413288 L68.4536986,19.9413288 L68.4536986,19.9413288 Z" id="Fill-14" fill="#333333"></path>
            <polygon id="Fill-16" fill="#333333" points="72.939726 21.3700685 75.5086301 21.3700685 75.5086301 11.5292466 72.939726 11.5292466"></polygon>
            <path d="M79.9222466,17.5622877 C79.9949863,17.9177671 80.1186849,18.2383151 80.2933425,18.5214658 C80.467589,18.8046164 80.7006027,19.0310548 80.9895068,19.1995479 C81.2792329,19.3684521 81.6412877,19.4526986 82.0752603,19.4526986 C82.5096438,19.4526986 82.8741644,19.3684521 83.1692329,19.1995479 C83.4647123,19.0310548 83.6997808,18.8046164 83.8748493,18.5214658 C84.0499178,18.2383151 84.1736164,17.9177671 84.2459452,17.5622877 C84.317863,17.2068082 84.3544384,16.8422877 84.3544384,16.4683151 C84.3544384,16.0943425 84.317863,15.7265342 84.2459452,15.3644795 C84.1736164,15.0024247 84.0499178,14.6831096 83.8748493,14.4057123 C83.6997808,14.1283151 83.4647123,13.9018767 83.1692329,13.7268082 C82.8741644,13.5525616 82.5096438,13.4650274 82.0752603,13.4650274 C81.6412877,13.4650274 81.2792329,13.5525616 80.9895068,13.7268082 C80.7006027,13.9018767 80.467589,14.1283151 80.2933425,14.4057123 C80.1186849,14.6831096 79.9949863,15.0024247 79.9222466,15.3644795 C79.8499178,15.7265342 79.8137534,16.0943425 79.8137534,16.4683151 C79.8137534,16.8422877 79.8499178,17.2068082 79.9222466,17.5622877 M77.588411,14.4324247 C77.817726,13.8237945 78.1432055,13.3051644 78.5652603,12.8769452 C78.987726,12.449137 79.4940274,12.1170822 80.0849863,11.8820137 C80.6759452,11.6469452 81.3392329,11.529411 82.0752603,11.529411 C82.8104658,11.529411 83.4770411,11.6469452 84.0741644,11.8820137 C84.6712877,12.1170822 85.1800548,12.449137 85.6029315,12.8769452 C86.0245753,13.3051644 86.3504658,13.8237945 86.5797808,14.4324247 C86.8086849,15.0418767 86.9233425,15.7203699 86.9233425,16.4683151 C86.9233425,17.2154384 86.8086849,17.8914658 86.5797808,18.4943425 C86.3504658,19.0968082 86.0245753,19.6129726 85.6029315,20.0407808 C85.1800548,20.468589 84.6712877,20.7977671 84.0741644,21.0266712 C83.4770411,21.2551644 82.8104658,21.3702329 82.0752603,21.3702329 C81.3392329,21.3702329 80.6759452,21.2551644 80.0849863,21.0266712 C79.4940274,20.7977671 78.987726,20.468589 78.5652603,20.0407808 C78.1432055,19.6129726 77.817726,19.0968082 77.588411,18.4943425 C77.3595068,17.8914658 77.2448493,17.2154384 77.2448493,16.4683151 C77.2448493,15.7203699 77.3595068,15.0418767 77.588411,14.4324247" id="Fill-18" fill="#333333"></path>
            <polygon id="Fill-19" fill="#333333" points="93.1291507 13.5660822 88.3891507 13.5660822 88.3891507 11.5293699 96.6884658 11.5293699 96.6884658 13.5660822 91.5683288 19.3338904 97.0505205 19.3338904 97.0505205 21.3701918 88.0086027 21.3701918 88.0086027 19.3338904"></polygon>
            <path d="M75.5084658,9.51143836 C75.5084658,10.225274 74.9294247,10.8043151 74.215589,10.8043151 C73.5017534,10.8043151 72.9227123,10.225274 72.9227123,9.51143836 C72.9227123,8.79760274 73.5017534,8.21856164 74.215589,8.21856164 C74.9294247,8.21856164 75.5084658,8.79760274 75.5084658,9.51143836" id="Fill-20" fill="#333333"></path>
        </g>
    </g>
</svg>